<?xml version="1.0" encoding="UTF-8" standalone="yes"?>
<!-- Created with sK1/UniConvertor (http://sk1project.org/) -->
<svg xmlns="http://www.w3.org/2000/svg" xmlns:xlink="http://www.w3.org/1999/xlink"
  width="360pt" height="160pt" viewBox="0 0 360 160"
  fill-rule="evenodd">
<g>
<g>
<path style="stroke:none; fill:#FFFFFF" d="M 6 53.5C 6 95.1 6.2 101 7.5 101C 8.8 101 9 97.8 9 78L 9 55L 39.3 55.2L 69.5 55.5L 69.8 78.2C 70 97.6 70.3 101 71.5 101C 72.8 101 73 94.8 73 53.5C 73 12.2 72.8 6 71.5 6C 70.3 6 70 9.39999 69.8 28.7L 69.5 51.5L 39.5 51.5L 9.5 51.5L 9.2 28.7C 9 9.39999 8.7 6 7.5 6C 6.2 6 6 12.2 6 53.5z"/>
<path style="stroke:none; fill:#FFFFFF" d="M 95.7 6.59999C 94.6 7.7 94.9 61 96 69.7C 98 84.4 105.5 95.1 117.8 100.8C 122.6 103.1 124.9 103.5 132.5 103.5C 140.7 103.5 142.2 103.2 148.2 100.2C 159.3 94.8 167.1 84.3 169 72.3C 169.6 69.1 170 52.9 170 36.2C 170 7.8 169.9 5.89999 168.3 6.2C 166.6 6.5 166.5 9.2 166 41L 165.5 75.5L 162.6 81.3C 161 84.5 157.5 89.1 154.8 91.6C 147.9 98.1 142.5 100.2 132.6 100.3C 125.3 100.4 123.9 100.1 118.1 97.1C 110.1 93 105.6 88.4 102.2 81.1C 99.6 75.7 99.5 74.7 99.3 55C 98.7 10.9 98.5 6.70001 97.4 6.3C 96.9 6.10001 96.1 6.29999 95.7 6.59999z"/>
<path style="stroke:none; fill:#FFFFFF" d="M 191 8C 191 9.89999 191.7 10 213.8 10.1C 226.3 10.2 240.8 10.3 246 10.3C 255.1 10.4 255.5 10.3 255.8 8.2L 256.1 6L 223.6 6C 191.7 6 191 6 191 8z"/>
<path style="stroke:none; fill:#FFFFFF" d="M 278.2 6.89999C 278.4 7.5 286.9 18.2 297.3 30.9L 316 53.9L 297 77.1C 286.6 89.9 278 100.7 278 101.2C 278 101.6 278.8 102 279.8 102C 282.1 102 284.5 99.4 302.9 76.7C 311.3 66.4 318.4 58 318.8 58C 319.2 58 327.6 67.9 337.4 80C 351.8 97.6 355.8 102 357.8 102C 359.1 102 360 101.6 359.8 101.2C 359.7 100.7 351.2 90.1 341 77.6C 330.8 65.1 322.5 54.3 322.6 53.6C 322.7 52.9 330.8 42.5 340.6 30.4C 350.5 18.4 358.9 7.89998 359.3 7.19998C 359.9 6.39998 359.4 5.99998 357.6 5.99998C 355.5 5.99998 352 9.79999 337.3 27.9C 327.5 40 319.2 49.9 318.9 49.9C 318.6 50 310.3 40.1 300.4 28C 286.3 10.7 282 5.99998 280.2 5.99998C 278.9 5.99998 278 6.39999 278.2 6.89999z"/>
<path style="stroke:none; fill:#FFFFFF" d="M 191 53.5L 191 56L 223.3 55.8C 254.7 55.5 255.5 55.5 255.5 53.5C 255.5 51.5 254.7 51.5 223.3 51.2L 191 51L 191 53.5z"/>
<path style="stroke:none; fill:#FFFFFF" d="M 191 99C 191 101 191.7 101 222.5 101C 239.8 101 254.3 101.1 254.8 101.2C 255.2 101.4 255.6 100.5 255.8 99.2L 256.1 97L 223.6 97C 191.7 97 191 97 191 99z"/>
<path style="stroke:none; fill:#FFFFFF" d="M 5 146.5C 5 151.5 5.4 155 6 155C 6.6 155 7 153.4 7 151.5C 7 148 7 148 11.5 148C 16 148 16 148 16 151.5C 16 153.4 16.5 155 17 155C 17.6 155 18 151.5 18 146.5C 18 141.5 17.6 138 17 138C 16.5 138 16 139.8 16 142L 16 146L 11.5 146L 7 146L 7 142C 7 139.8 6.6 138 6 138C 5.4 138 5 141.5 5 146.5z"/>
<path style="stroke:none; fill:#FFFFFF" d="M 45.9 138.5C 45.6 139 45.2 141.7 45.1 144.5C 44.8 150 42.9 153 39.5 153C 35.9 153 34 149.9 34 144.2C 34 141.3 33.6 139 33 139C 32.5 139 32 141.5 32 144.5C 32 149.1 32.4 150.5 34.5 152.5C 37.6 155.7 41.9 155.8 44.9 152.6C 46.8 150.6 47.1 149.3 46.8 143.9C 46.6 140.4 46.2 137.9 45.9 138.5z"/>
<path style="stroke:none; fill:#FFFFFF" d="M 62 146.5C 62 151.5 62.4 155 63 155C 63.6 155 64 152.1 64 148.3L 64 141.6L 66.8 144.3L 69.6 147L 72.3 144.3L 75 141.5L 75 148.3C 75 152.1 75.4 155 76 155C 76.6 155 77 151.5 77 146.5C 77 137.1 75.6 135.4 72.3 141C 70.1 144.8 69 144.8 66.5 141C 63 135.8 62 137.1 62 146.5z"/>
<path style="stroke:none; fill:#FFFFFF" d="M 118 146.5C 118 151.5 118.4 155 119 155C 119.6 155 120 152.1 120 148.4L 120 141.9L 124 146.5C 126.2 149 128.5 152 129 153.1C 131.1 156.9 132 154.9 132 146.5C 132 141.5 131.6 138 131 138C 130.4 138 130 140.9 130 144.6L 130 151.3L 125 144.6C 122.2 141 119.5 138 119 138C 118.4 138 118 141.7 118 146.5z"/>
<path style="stroke:none; fill:#FFFFFF" d="M 182 146.5L 182 155L 188 155C 195.1 155 196.1 153.2 189.3 152.8C 185.1 152.5 184.6 152.3 184.3 149.7C 184 147.1 184.1 147 188 147C 193.1 147 193.3 145.2 188.3 144.8C 185.3 144.6 184.5 144.1 184.5 142.5C 184.5 140.8 185.3 140.5 189.3 140.2C 196.1 139.8 195.1 138 188 138L 182 138L 182 146.5z"/>
<path style="stroke:none; fill:#FFFFFF" d="M 210.4 141.4C 211.8 143.3 213 145.3 213 145.7C 213 146.2 211.6 148.5 209.9 150.8C 208 153.4 207.3 155 208.2 155C 208.9 155 210.6 153.4 211.9 151.5C 213.2 149.6 214.5 148 214.9 148C 215.2 148 216.6 149.6 217.9 151.5C 220.1 154.7 222 156 222 154.2C 222 153.8 220.6 151.8 219 149.6L 216.1 145.8L 218.7 142.4C 222.1 137.9 220.8 136.6 217.2 140.9L 214.5 144.1L 212.5 141C 211.4 139.4 209.9 138 209.1 138C 208.2 138 208.6 139.1 210.4 141.4z"/>
<path style="stroke:none; fill:#FFFFFF" d="M 237 146.5C 237 151.5 237.4 155 238 155C 238.6 155 239 153.4 239 151.5C 239 148.3 239.3 148 241.8 148C 245.3 148 249 145.4 249 143C 249 139.9 246.2 138 241.4 138L 237 138L 237 146.5zM 245.6 140.8C 246.9 141.7 248.3 145.3 247.1 144.5C 246.6 144.2 245.9 144.4 245.5 145C 245.2 145.5 243.6 146 241.9 146C 239.3 146 239 145.7 239 143C 239 140.4 239.4 140 241.8 140C 243.3 140 245 140.4 245.6 140.8z"/>
<path style="stroke:none; fill:#FFFFFF" d="M 264 146.5C 264 151.5 264.4 155 265 155C 265.6 155 266 153.2 266 151.1C 266 147.6 266.2 147.2 268.3 147.7C 269.5 148 271.9 149.9 273.7 151.9C 277.5 156.3 278.9 155.6 275.5 151C 273.4 148.1 273.2 147.5 274.5 146.7C 275.3 146.3 276 144.6 276 143C 276 139.4 273.7 138 268.1 138L 264 138L 264 146.5zM 274.5 142.9C 274.5 145.3 274.2 145.5 270.3 145.1C 266.5 144.8 266 144.5 266 142.4C 266 140.1 266.3 139.9 270.3 140.1C 274.1 140.3 274.5 140.6 274.5 142.9z"/>
<path style="stroke:none; fill:#FFFFFF" d="M 292.5 139.2C 292.2 139.9 292.1 143.6 292.3 147.5L 292.5 154.5L 298.3 154.8C 301.8 155 304 154.7 304 154C 304 153.5 302 153 299.5 153C 295.2 153 295 152.9 295 150C 295 147.2 295.3 147 298.5 147C 300.4 147 302 146.5 302 146C 302 145.4 300.4 145 298.5 145C 295.4 145 295 144.7 295 142.5C 295 140.2 295.4 140 299.5 140C 302 140 304 139.5 304 139C 304 137.5 293 137.7 292.5 139.2z"/>
<path style="stroke:none; fill:#FFFFFF" d="M 319.5 139.6C 317 142.2 318.1 144.3 323.3 146.8C 325.9 148 328 149.7 328 150.5C 328 152.5 323.4 153.5 320.4 152.1C 318.5 151.3 318 151.3 318 152.4C 318 155.3 325.8 156 328.5 153.4C 329.4 152.5 330 150.8 329.8 149.7C 329.5 147.7 328.8 147.1 323.5 144.8C 318.9 142.8 319.6 140.5 324.8 140.6C 329 140.7 330.3 139.7 327.4 138.6C 324.6 137.5 321.2 138 319.5 139.6z"/>
<path style="stroke:none; fill:#FFFFFF" d="M 345.5 140C 343.1 142.7 344.2 144.7 349.6 147C 352.9 148.4 354.1 149.5 353.8 150.7C 353.4 152.9 349 153.6 346 152C 344.4 151.2 344 151.2 344 152.4C 344 155 350.3 156 354.1 154C 358.1 151.8 354.9 145 349.9 145C 349 145 347.7 144.4 347.1 143.6C 345.4 141.6 348.3 139.6 352 140.4C 355.1 141 356.2 139.7 353.4 138.6C 350.4 137.5 347.3 138 345.5 140z"/>
<path style="stroke:none; fill:#FFFFFF" d="M 95.8 141.1C 94 143.9 89 153.7 89 154.5C 89 154.8 89.5 155 90.1 155C 90.6 155 91.6 153.6 92.1 152C 93.1 149.3 93.6 149 97.5 149C 101.3 149 101.9 149.3 103 152C 104.1 154.6 106 156.2 106 154.5C 106 153.6 100.3 142.6 98.8 140.6C 97.4 138.9 97.3 138.9 95.8 141.1zM 99.7 146.4C 99.2 147.8 97.7 148.1 96.1 147.1C 95.1 146.4 95 145.8 96 143.9C 97.2 141.7 97.3 141.7 98.6 143.5C 99.4 144.6 99.9 145.9 99.7 146.4z"/>
</g>
</g>
</svg>