<svg xmlns="http://www.w3.org/2000/svg" xmlns:xlink="http://www.w3.org/1999/xlink" version="1.1" x="0px" y="0px"
     viewBox="0 0 100 125" enable-background="new 0 0 100 100" xml:space="preserve"><path d="M84.9,40H77c-1.1,0-2,0.9-2,2c0,0.2,0,0.6,0,1h-8.3c-2.4-6.9-11-6.9-16.4-6.9c-5.4,0-14,0-16.4,6.9h-8.3c0-0.5,0-0.8,0-1  c0-1.1-0.9-2-2-2h-7.9c-1.1,0-2,0.9-2,2c0,1.3,0,7.9,2.8,10.7c0.9,0.9,2,1.4,3.2,1.4s2.3-0.5,3.2-1.4c1.3-1.3,2-3.6,2.4-5.6h8.1  c0,0.1,0,0.2,0,0.3c0,3.5,1,6.4,3,8.7l-3.5,5.5c-0.6,0.9-0.3,2.2,0.6,2.8c0.3,0.2,0.7,0.3,1.1,0.3c0.7,0,1.3-0.3,1.7-0.9l3.2-4.9  c2.8,1.8,6.6,2.8,11.1,2.8c4.4,0,8.1-1,10.9-2.7l3.1,4.9c0.4,0.6,1,0.9,1.7,0.9c0.4,0,0.7-0.1,1.1-0.3c0.9-0.6,1.2-1.8,0.6-2.8  l-3.4-5.3c2-2.3,3.1-5.3,3.1-8.8c0-0.1,0-0.2,0-0.3h8.1c0.4,2.1,1.1,4.3,2.4,5.6c0.9,0.9,2,1.4,3.2,1.4s2.3-0.5,3.2-1.4  c2.8-2.8,2.8-9.4,2.8-10.7C86.9,40.9,86,40,84.9,40z M19.9,49.8C19.8,50,19.7,50,19.6,50s-0.1,0-0.3-0.2c-0.9-0.9-1.4-3.5-1.6-5.8  h3.8C21.3,46.3,20.8,48.9,19.9,49.8z M50.3,56.7c-4.9,0-4.9-1.2-4.9-2.2c0-1,0-2.5,4.9-2.5c4.9,0,4.9,1.5,4.9,2.5  C55.2,55.5,55.2,56.7,50.3,56.7z M59.1,55.3c0-0.3,0.1-0.5,0.1-0.8c0-4.3-3-6.5-8.9-6.5c-5.9,0-8.9,2.2-8.9,6.5c0,0.3,0,0.5,0.1,0.8  c-2.4-1.5-4.2-3.9-4.2-8c0-5.5,3.1-7.2,13.1-7.2c10,0,13.1,1.7,13.1,7.2C63.3,51.3,61.5,53.8,59.1,55.3z M81.3,49.8  C81.1,50,81,50,80.9,50c-0.1,0-0.1,0-0.3-0.2c-0.9-0.9-1.4-3.5-1.6-5.8h3.8C82.7,46.3,82.2,48.9,81.3,49.8z M27.6,38.1  C27.6,38.1,27.6,38.1,27.6,38.1c7.2,0,8-3.9,8-5.6c0-2.1-1-5.5-8-5.5c-3.2,0-6.2,1.8-8,3c-1.7-1.2-4.8-3.1-8-3.1c-7.2,0-8,3.9-8,5.6  c0,2.1,1,5.5,8,5.5c0,0,0,0,0,0c3.2,0,6.2-1.8,8-3C21.3,36.3,24.3,38.1,27.6,38.1z M27.6,30.9c2.6,0,4,0.5,4,1.5  c0,1.1-1.3,1.6-4,1.6c-1.5,0-3.2-0.8-4.6-1.6C24.4,31.7,26.1,30.9,27.6,30.9z M11.6,34c-2.6,0-4-0.5-4-1.5c0-1.1,1.3-1.6,4-1.6  c1.5,0,3.2,0.8,4.6,1.6C14.8,33.2,13.1,34,11.6,34z M88.9,26.9c-3.2,0-6.2,1.8-8,3c-1.7-1.2-4.8-3.1-8-3.1c-7.2,0-8,3.9-8,5.6  c0,2.1,1,5.5,8,5.5c0,0,0,0,0,0c3.2,0,6.2-1.8,8-3c1.7,1.2,4.8,3.1,8,3.1c0,0,0,0,0,0c7.2,0,8-3.9,8-5.6  C96.9,30.4,95.9,26.9,88.9,26.9z M73,34c-2.6,0-4-0.5-4-1.5c0-1.1,1.3-1.6,4-1.6c1.5,0,3.2,0.8,4.6,1.6C76.2,33.2,74.5,34,73,34z   M88.9,34.1c-1.5,0-3.2-0.8-4.6-1.6c1.3-0.8,3.1-1.6,4.6-1.6c2.6,0,4,0.5,4,1.5C92.9,33.6,91.6,34.1,88.9,34.1z"/>
</svg>