<?xml version="1.0" standalone="no"?>
<svg version="1.0" xmlns="http://www.w3.org/2000/svg"
     width="900px" height="900px" viewBox="-6400 -6600 200 6000"
     preserveAspectRatio="xMidYMid meet">
    <g transform="translate(0.000000,853.000000) rotate(180 50 50)" fill="#f4f4f4" stroke="none">
        <path d="M8905 6170 c-38 -4 -83 -12 -98 -19 -16 -6 -33 -9 -38 -6 -4 3 -61
-8 -126 -24 -65 -17 -183 -47 -263 -66 -139 -35 -376 -112 -432 -141 -15 -8
-64 -28 -110 -44 -46 -17 -117 -50 -158 -75 -68 -41 -76 -43 -92 -28 -13 12
-33 14 -85 11 -117 -7 -255 -76 -377 -188 -39 -36 -93 -78 -121 -94 -27 -16
-68 -44 -90 -61 -56 -46 -249 -155 -273 -155 -11 0 -25 7 -32 15 -7 8 -15 13
-19 10 -4 -2 -16 6 -26 17 l-18 22 -18 -22 c-22 -28 -26 -28 -34 6 -7 33 -42
59 -58 43 -13 -13 -47 -109 -47 -133 0 -15 -4 -16 -25 -8 -57 22 -121 -18
-109 -67 4 -13 -1 -38 -10 -57 -12 -26 -28 -38 -73 -55 -107 -41 -147 -39
-333 14 -91 26 -106 27 -348 29 -179 2 -256 6 -264 14 -8 8 -67 12 -193 12
-99 1 -211 5 -250 10 -38 5 -152 14 -251 20 -166 9 -188 8 -257 -9 -159 -41
-237 -101 -323 -251 -58 -102 -121 -166 -217 -221 -149 -87 -178 -109 -175
-132 3 -21 7 -22 72 -19 72 4 109 14 291 80 69 25 137 42 182 47 118 10 287
50 468 108 143 47 177 54 207 48 20 -5 95 -42 166 -84 71 -41 178 -98 236
-127 65 -32 128 -71 159 -100 68 -62 81 -101 118 -350 32 -221 105 -435 195
-576 l32 -52 -70 -53 c-61 -46 -78 -67 -122 -145 -28 -51 -78 -124 -111 -164
-79 -94 -92 -117 -78 -131 8 -8 17 -8 33 1 33 18 41 0 25 -54 -8 -27 -13 -51
-11 -54 3 -2 40 15 83 37 87 45 103 49 103 24 0 -15 2 -15 14 -3 22 22 60 195
61 275 0 83 17 123 25 60 3 -27 10 -41 22 -43 17 -3 18 4 2 78 -3 19 4 36 32
68 l37 43 27 -26 c18 -17 31 -45 40 -83 9 -43 21 -65 49 -92 20 -19 49 -52 64
-72 l27 -37 -25 -17 c-13 -9 -34 -32 -46 -53 -32 -52 -66 -87 -136 -137 -37
-27 -79 -68 -102 -102 -21 -31 -49 -66 -61 -77 -12 -11 -47 -52 -76 -91 -30
-40 -79 -98 -109 -130 -53 -58 -68 -81 -42 -71 6 3 29 12 49 21 20 9 39 12 42
7 7 -11 2 -63 -8 -82 -4 -8 20 15 53 51 75 80 165 204 192 264 11 25 29 50 39
56 11 6 20 18 21 28 0 11 2 12 6 4 7 -18 33 4 33 28 0 26 69 100 154 165 47
35 79 68 85 86 8 25 13 28 28 20 28 -14 66 -60 103 -121 18 -30 47 -73 65 -95
18 -22 42 -59 54 -82 12 -24 26 -43 32 -43 8 0 9 -15 5 -44 -7 -42 12 -145 21
-120 2 7 9 61 16 120 l12 109 40 -3 c62 -4 76 13 24 29 -36 12 -45 19 -47 42
-3 26 -1 27 40 28 64 2 102 12 106 29 2 12 -7 14 -45 12 -27 -1 -55 2 -63 8
-13 9 -11 14 10 33 50 44 62 67 84 164 21 91 22 120 21 393 l-2 295 -36 119
c-22 74 -33 126 -28 139 7 18 8 17 25 -8 10 -15 54 -64 97 -108 44 -45 86 -93
92 -107 8 -14 21 -24 31 -23 21 1 40 -39 51 -106 7 -43 51 -98 67 -83 4 4 14
34 23 67 8 33 19 61 25 63 5 2 26 15 46 28 41 28 40 28 110 -43 17 -18 38 -33
47 -33 9 0 26 23 41 55 14 30 31 57 38 59 7 3 25 7 41 10 20 5 27 12 27 30 0
13 6 29 14 35 8 6 19 25 26 40 6 16 20 31 31 34 10 3 19 12 19 20 0 8 11 35
25 58 14 24 25 55 25 69 l0 25 31 -32 c16 -18 31 -33 33 -33 2 0 17 5 35 11
20 7 31 18 31 30 0 13 7 19 24 19 13 0 30 7 37 16 7 9 23 20 35 24 12 5 28 22
36 37 8 17 23 29 38 31 13 2 33 10 44 18 11 8 28 14 38 14 9 0 29 5 45 12 15
7 48 13 73 14 25 0 64 6 87 13 35 9 48 8 77 -6 32 -15 37 -15 53 -1 10 8 39
27 65 41 26 15 50 36 53 47 5 16 15 20 49 20 43 0 158 41 187 66 8 8 32 14 53
14 20 0 76 11 124 25 48 13 118 27 155 31 46 4 67 10 64 17 -3 9 33 12 135 12
108 0 141 3 147 14 6 10 22 12 55 9 25 -3 43 -2 40 3 -3 5 -11 9 -19 9 -8 0
-37 5 -65 11 -38 8 -50 15 -50 29 0 15 12 20 63 26 34 4 52 10 39 12 -13 2
-19 8 -16 14 5 8 -9 9 -47 5 -30 -3 -137 -13 -239 -22 -172 -14 -263 -22 -685
-60 -203 -18 -190 -18 -175 0 7 8 10 26 8 40 -6 27 2 30 74 26 39 -3 130 33
159 61 8 9 40 23 69 32 86 26 165 69 165 91 0 10 5 20 10 21 75 21 153 46 164
53 11 7 10 13 -4 35 -10 15 -15 29 -12 32 3 3 36 10 74 16 103 16 101 14 57
59 -21 22 -54 49 -71 60 -23 15 -33 28 -33 46 0 24 2 25 38 17 44 -9 54 -9
156 2 44 5 81 14 83 21 6 17 -32 48 -119 99 -63 37 -78 51 -78 70 0 22 4 24
53 24 96 0 247 23 247 37 0 13 -66 47 -174 89 -36 14 -51 26 -56 44 -6 21 -3
25 14 26 105 8 197 31 210 53 3 5 -7 26 -22 47 -26 35 -33 39 -101 50 -41 7
-81 19 -89 28 -26 26 -7 44 55 51 208 22 242 30 217 55 -11 11 -155 40 -204
40 -25 1 -40 7 -53 25 -18 25 -18 25 6 34 13 5 49 14 79 20 30 5 73 17 96 26
36 15 40 20 31 36 -11 21 -22 21 -144 9z m-115 -488 c0 -15 -2 -15 -10 -2 -13
20 -13 33 0 25 6 -3 10 -14 10 -23z"/>
        <path d="M6370 5305 c-10 -12 -10 -15 4 -15 9 0 16 7 16 15 0 8 -2 15 -4 15
-2 0 -9 -7 -16 -15z"/>
    </g>
</svg>
