<?xml version="1.0" standalone="no"?>
<!DOCTYPE svg PUBLIC "-//W3C//DTD SVG 20010904//EN"
 "http://www.w3.org/TR/2001/REC-SVG-20010904/DTD/svg10.dtd">
<svg version="1.0" xmlns="http://www.w3.org/2000/svg"
 width="512.000000pt" height="512.000000pt" viewBox="0 0 512.000000 512.000000"
 preserveAspectRatio="xMidYMid meet">
<metadata>
Created by potrace 1.11, written by Peter Selinger 2001-2013
</metadata>
<g transform="translate(0.000000,512.000000) scale(0.100000,-0.100000)"
fill="#000000" stroke="none">
<path d="M1114 5086 c-46 -46 -46 -86 0 -132 l34 -34 176 0 176 0 0 -135 0
-135 -70 0 c-63 0 -73 -3 -102 -29 -27 -24 -33 -36 -33 -71 0 -35 6 -47 33
-71 l32 -29 474 0 473 0 31 -50 c17 -27 49 -62 71 -77 22 -15 40 -31 41 -34 0
-3 -81 -63 -180 -133 -98 -70 -188 -139 -200 -153 -19 -24 -20 -39 -20 -290
l0 -265 34 -34 c25 -24 43 -34 66 -34 23 0 41 10 66 34 l34 34 0 225 0 226
161 113 c88 62 163 112 167 110 4 -2 21 -39 38 -84 16 -44 41 -91 53 -104 l23
-24 407 0 408 0 24 26 c13 14 38 62 56 107 17 45 36 81 41 80 6 -2 81 -53 166
-114 l156 -111 0 -225 0 -225 34 -34 c25 -24 43 -34 66 -34 23 0 41 10 66 34
l34 34 0 265 c0 250 -1 266 -20 290 -11 14 -101 83 -200 153 -99 71 -180 131
-180 134 1 3 19 18 41 33 22 15 54 50 71 77 l31 50 473 0 474 0 32 29 c27 24
33 36 33 71 0 35 -6 47 -33 71 -29 26 -39 29 -102 29 l-70 0 0 135 0 135 176
0 176 0 34 34 c46 46 46 86 0 132 l-34 34 -446 0 c-379 0 -451 -2 -476 -15
-35 -18 -50 -43 -50 -85 0 -86 35 -100 250 -100 l170 0 0 -135 0 -135 -289 0
-288 0 -6 108 c-3 63 -12 127 -22 154 -23 65 -94 141 -163 175 l-57 28 -575 0
-575 0 -57 -28 c-69 -34 -140 -110 -163 -175 -10 -27 -19 -91 -22 -154 l-6
-108 -288 0 -289 0 0 135 0 135 170 0 c215 0 250 14 250 100 0 42 -15 67 -50
85 -25 13 -97 15 -476 15 l-446 0 -34 -34z m2543 -186 c54 -33 63 -63 63 -212
0 -154 -12 -192 -70 -220 -32 -16 -80 -18 -550 -18 -470 0 -518 2 -550 18 -58
28 -70 66 -70 220 0 149 9 179 63 212 31 19 54 20 557 20 503 0 526 -1 557
-20z m-207 -654 c0 -3 -12 -37 -26 -75 l-26 -71 -298 0 -298 0 -26 71 c-14 38
-26 72 -26 75 0 2 158 4 350 4 193 0 350 -2 350 -4z"/>
<path d="M560 3693 c-170 -28 -387 -141 -475 -244 -34 -41 -34 -97 -1 -136 20
-23 32 -28 68 -28 38 0 51 6 96 45 67 59 146 107 230 138 90 33 275 42 372 18
88 -22 215 -86 275 -139 67 -59 91 -70 130 -63 59 11 94 75 71 129 -40 97
-270 233 -458 271 -71 15 -245 20 -308 9z"/>
<path d="M2463 3432 c-111 -93 -202 -244 -225 -373 -6 -35 -16 -69 -22 -76 -6
-6 -162 -102 -346 -213 -214 -130 -339 -199 -346 -194 -6 5 -39 33 -73 62 -82
69 -119 71 -198 11 -98 -76 -172 -185 -214 -314 l-26 -80 -129 -79 c-71 -43
-289 -175 -484 -293 -195 -118 -364 -223 -375 -234 -14 -14 -20 -33 -20 -64 0
-31 6 -50 20 -64 40 -38 2500 -1516 2530 -1519 25 -3 182 89 910 528 484 293
1048 633 1253 757 399 241 410 250 398 318 -4 18 -14 39 -24 48 -9 8 -100 66
-202 127 -211 128 -240 138 -288 94 -73 -70 -47 -124 102 -214 60 -36 109 -69
109 -74 -1 -6 -231 -149 -512 -319 l-511 -309 -467 283 c-258 155 -476 289
-487 298 -10 9 -24 28 -32 43 l-14 26 324 196 c178 108 326 196 329 196 3 0
11 -17 17 -37 27 -83 87 -180 158 -255 125 -130 170 -135 279 -29 217 211 270
490 143 747 -42 85 -142 205 -204 243 -65 40 -128 20 -210 -68 -17 -17 -33
-31 -37 -31 -4 0 -160 92 -347 205 l-339 205 -16 80 c-23 117 -75 216 -165
311 -121 129 -165 139 -259 61z m137 -219 c57 -65 93 -156 98 -248 6 -121 -21
-205 -101 -308 l-30 -38 -29 28 c-41 39 -96 156 -109 231 -13 75 -1 159 35
238 24 53 83 134 97 134 4 0 22 -17 39 -37z m-326 -513 c33 -83 89 -161 166
-234 104 -98 140 -98 248 -1 61 55 144 176 169 245 10 28 20 50 23 50 3 0 138
-81 300 -179 173 -105 294 -184 293 -192 -1 -8 -10 -47 -20 -87 l-18 -72 -105
-64 c-58 -34 -233 -140 -390 -235 l-285 -172 -36 20 c-46 26 -72 26 -118 0
l-37 -20 -99 60 c-80 49 -107 61 -141 61 -35 0 -47 -5 -68 -31 -30 -35 -34
-83 -11 -116 9 -12 53 -45 100 -73 l85 -51 -14 -27 c-8 -15 -22 -34 -32 -43
-11 -9 -229 -143 -486 -299 l-468 -281 -510 308 c-280 169 -511 312 -512 317
-2 7 693 436 707 436 2 0 13 -29 25 -64 49 -148 198 -330 288 -353 93 -23 293
213 337 398 19 84 19 229 -1 299 -31 105 -53 83 276 281 162 98 299 177 303
176 5 -1 18 -27 31 -57z m-880 -289 c102 -139 119 -295 48 -445 -16 -33 -45
-79 -64 -101 l-35 -39 -45 62 c-85 115 -112 269 -69 393 26 77 93 179 117 179
7 0 28 -22 48 -49z m2425 -1 c63 -79 85 -148 85 -260 0 -112 -21 -176 -86
-265 l-42 -55 -33 32 c-46 44 -92 141 -106 222 -20 116 16 245 93 339 17 20
36 37 40 37 5 0 27 -22 49 -50z m-1220 -880 c18 -22 47 -71 64 -108 29 -61 32
-75 32 -167 0 -95 -2 -104 -36 -175 -20 -41 -51 -91 -68 -110 l-31 -35 -35 40
c-107 124 -134 306 -66 451 28 61 87 144 101 144 4 0 21 -18 39 -40z m-375
-332 c20 -175 112 -341 249 -450 67 -52 107 -52 174 0 137 109 229 275 249
450 3 34 8 62 9 62 9 0 680 -410 682 -417 1 -4 -217 -140 -485 -301 -268 -161
-499 -301 -514 -310 l-27 -16 -515 310 c-283 170 -514 312 -513 317 2 7 665
414 678 416 4 1 10 -27 13 -61z"/>
<path d="M1869 2031 c-73 -73 -4 -187 96 -159 102 28 76 188 -30 188 -27 0
-44 -8 -66 -29z"/>
<path d="M583 3306 c-75 -18 -154 -60 -207 -109 -40 -38 -46 -48 -46 -85 0
-93 96 -131 171 -68 115 97 271 101 378 9 27 -22 55 -37 81 -40 34 -5 43 -1
70 25 43 44 42 99 -2 147 -101 107 -290 158 -445 121z"/>
<path d="M673 2932 c-39 -6 -73 -50 -73 -94 0 -85 93 -128 159 -72 26 21 31
33 31 69 0 26 -7 51 -17 64 -20 23 -66 39 -100 33z"/>
</g>
</svg>
